<mxfile host="app.diagrams.net" modified="2024-04-23T12:52:46.591Z" agent="Mozilla/5.0 (Macintosh; Intel Mac OS X 10_15_7) AppleWebKit/605.1.15 (KHTML, like Gecko) Version/17.4.1 Safari/605.1.15" version="24.2.5" etag="xNgNcY5wZOFtKwbSa6SU" type="github">
  <diagram name="第 1 页" id="S3MBXK5i0ocSSjWmonce">
    <mxGraphModel>
      <root>
        <mxCell id="0" />
        <mxCell id="1" parent="0" />
      </root>
    </mxGraphModel>
  </diagram>
</mxfile>
